<?xml version="1.0" encoding="UTF-8" standalone="no"?>
<svg
   xmlns:dc="http://purl.org/dc/elements/1.1/"
   xmlns:cc="http://creativecommons.org/ns#"
   xmlns:rdf="http://www.w3.org/1999/02/22-rdf-syntax-ns#"
   xmlns:svg="http://www.w3.org/2000/svg"
   xmlns="http://www.w3.org/2000/svg"
   xmlns:xlink="http://www.w3.org/1999/xlink"
   xmlns:sodipodi="http://sodipodi.sourceforge.net/DTD/sodipodi-0.dtd"
   xmlns:inkscape="http://www.inkscape.org/namespaces/inkscape"
   sodipodi:docname="mentahan-sampul-kelas.svg"
   inkscape:version="1.0 (4035a4fb49, 2020-05-01)"
   width="1401px"
   height="1002px"
   viewBox="0 0 1401 1002"
   version="1.1"
   id="SVGRoot">
  <defs
     id="defs833">
    <linearGradient
       id="linearGradient1683"
       inkscape:collect="always">
      <stop
         id="stop1679"
         offset="0"
         style="stop-color:#7f2aff;stop-opacity:1" />
      <stop
         id="stop1681"
         offset="1"
         style="stop-color:#2a7fff;stop-opacity:1" />
    </linearGradient>
    <linearGradient
       gradientUnits="userSpaceOnUse"
       y2="504.28571"
       x2="1400.4999"
       y1="504.28571"
       x1="713.78571"
       id="linearGradient1685"
       xlink:href="#linearGradient1683"
       inkscape:collect="always" />
  </defs>
  <sodipodi:namedview
     inkscape:window-maximized="1"
     inkscape:window-y="-8"
     inkscape:window-x="-8"
     inkscape:window-height="706"
     inkscape:window-width="1366"
     showgrid="false"
     inkscape:document-rotation="0"
     inkscape:current-layer="layer1"
     inkscape:document-units="px"
     inkscape:cy="433.63013"
     inkscape:cx="2047.5915"
     inkscape:zoom="0.98994949"
     inkscape:pageshadow="2"
     inkscape:pageopacity="0.0"
     borderopacity="1.0"
     bordercolor="#666666"
     pagecolor="#ffffff"
     id="base" />
  <metadata
     id="metadata836">
    <rdf:RDF>
      <cc:Work
         rdf:about="">
        <dc:format>image/svg+xml</dc:format>
        <dc:type
           rdf:resource="http://purl.org/dc/dcmitype/StillImage" />
        <dc:title></dc:title>
      </cc:Work>
    </rdf:RDF>
  </metadata>
  <g
     id="layer1"
     inkscape:groupmode="layer"
     inkscape:label="Layer 1">
    <rect
       y="0"
       x="2.8571429"
       height="1008.5714"
       width="1400"
       id="rect1407"
       style="fill:url(#linearGradient1685);fill-opacity:1;stroke:#000000;stroke-opacity:0" />
    <g
       transform="matrix(2.6958263,0,0,2.6958263,367.24857,232.03344)"
       id="g1677">
      <rect
         x="52.93"
         y="26.700001"
         width="243.5"
         height="193.83"
         fill="#24285b"
         id="rect1520" />
      <rect
         x="128.83"
         y="140.67"
         width="83.419998"
         height="9.3299999"
         fill="#8238fb"
         id="rect1522" />
      <rect
         x="152.75"
         y="114.67"
         width="74.580002"
         height="9.3299999"
         fill="#ffd200"
         id="rect1524" />
      <rect
         x="152.75"
         y="163.23"
         width="99.410004"
         height="9.3299999"
         fill="#8238fb"
         id="rect1526" />
      <rect
         x="152.75"
         y="187.75"
         width="99.410004"
         height="9.3299999"
         fill="#ffd200"
         id="rect1528" />
      <rect
         x="97.870003"
         y="163.23"
         width="37.389999"
         height="9.3299999"
         fill="#ffffff"
         id="rect1530" />
      <rect
         x="97.870003"
         y="187.75"
         width="37.389999"
         height="9.3299999"
         fill="#ffffff"
         id="rect1532" />
      <rect
         x="73.949997"
         y="140.67"
         width="37.389999"
         height="9.3299999"
         fill="#ffffff"
         id="rect1534" />
      <circle
         cx="69.550003"
         cy="42.439999"
         r="4.4000001"
         fill="#ffffff"
         id="circle1536" />
      <circle
         cx="82.639999"
         cy="42.439999"
         r="4.4000001"
         fill="#8238fb"
         id="circle1538" />
      <circle
         cx="94.970001"
         cy="42.439999"
         r="4.4000001"
         fill="#ffd200"
         id="circle1540" />
      <rect
         x="73.949997"
         y="69.669998"
         width="37.389999"
         height="9.3299999"
         fill="#ffffff"
         id="rect1542" />
      <rect
         x="97.870003"
         y="93.019997"
         width="37.389999"
         height="9.3299999"
         fill="#ffffff"
         id="rect1544" />
      <rect
         x="152.75"
         y="93.019997"
         width="74.580002"
         height="9.3299999"
         fill="#ffd200"
         id="rect1546" />
      <rect
         x="97.870003"
         y="114.67"
         width="37.389999"
         height="9.3299999"
         fill="#ffffff"
         id="rect1548" />
      <rect
         x="126.28"
         y="69.669998"
         width="77.019997"
         height="9.3299999"
         fill="#8238fb"
         id="rect1550" />
      <rect
         x="219.41"
         y="69.669998"
         width="54.68"
         height="9.3299999"
         fill="#8238fb"
         id="rect1552" />
      <path
         d="m 271.75,86.08 c 0,0 -21.85,-8.81 -22.13,17.55 l -4.83,7.37 c 0,0 -36.81,-2 -46.13,19.67 -9.32,21.67 -32.8,71.14 1.9,73.66 l 18.62,5.18 0.23,11 h 30.21 l 38.43,-67.93 z"
         opacity="0.24"
         id="path1554" />
      <path
         d="m 271.75,86.08 c 0,0 3,-5.44 9.23,-0.08 6.23,5.36 -3,11.55 6.21,18.14 0,0 -14.87,7.54 -15.44,-18.06 z"
         fill="#ffd200"
         id="path1556" />
      <path
         d="m 271.75,86.08 c 0,0 3,-5.44 9.23,-0.08 6.23,5.36 -3,11.55 6.21,18.14 0,0 -14.87,7.54 -15.44,-18.06 z"
         opacity="0.08"
         id="path1558" />
      <path
         d="m 261.59,97.68 c 0,0 -45.17,4.4 -36.7,38.28 8.47,33.88 17.82,56.46 17.82,56.46 h 54.45 c 0,0 68.89,-90.67 -35.57,-94.74 z"
         fill="#8238fb"
         id="path1560" />
      <path
         d="m 296.41,121.59 c 0,0 -12.23,17.75 -8,32.43 l -11.59,26 -27.2,20 47.54,-7.6 c 0,0 15.78,-22 17.92,-33.14 2.14,-11.14 -18.67,-37.69 -18.67,-37.69 z"
         opacity="0.08"
         id="path1562" />
      <ellipse
         cx="267.38"
         cy="268.10001"
         rx="106.01"
         ry="13.32"
         fill="#e6e6e6"
         opacity="0.45"
         id="ellipse1564" />
      <rect
         x="235.25999"
         y="206.86"
         width="71.129997"
         height="60.400002"
         fill="#e6e6e6"
         id="rect1566" />
      <polygon
         points="258.68,254.82 269.82,256.93 267.38,267.26 306.38,267.26 306.38,221.53 303.61,212.69 264.98,209.51 "
         opacity="0.14"
         id="polygon1568" />
      <polygon
         points="281.04,263.49 276.82,261.2 280.63,220.53 291.72,226.56 "
         fill="#f4a28c"
         id="polygon1570" />
      <path
         d="m 281,263.49 c 0,0 0.73,4.25 3.8,5.73 3.07,1.48 1.21,6 -3.37,2.9 a 28.88,28.88 0 0 1 -4,-3.18 9,9 0 0 0 -4.14,-2.06 1.5,1.5 0 0 1 -1.08,-1.3 c -0.49,-2.35 4.88,-4.23 4.88,-4.23 z"
         fill="#8238fb"
         id="path1572" />
      <path
         d="m 271.61,181.76 c 0,0 18.42,-1.22 24.53,3 6.11,4.22 0,68 0,68 l -28.34,-1.82 c 0,0 6.7,-46.41 -4.3,-54.3 -11,-7.89 8.11,-14.88 8.11,-14.88 z"
         fill="#24285b"
         id="path1574" />
      <path
         d="m 261.23,100.87 c 0,0 -5.67,8.92 -0.11,12.11 5.56,3.19 7.33,-0.45 7.33,-0.45 0,0 4.14,4.88 7.84,1.1 3.7,-3.78 3.18,-11.32 -0.59,-14.8 -3.77,-3.48 -14.47,2.04 -14.47,2.04 z"
         fill="#ffffff"
         id="path1576" />
      <path
         d="m 262.52,101.16 a 43.6,43.6 0 0 1 0.49,5 c 0.08,2.28 0.81,5.67 4.4,6.33 5.55,1 7,-7.74 7,-7.74 0,0 3.49,-8.22 -2.52,-9.35 -5.37,-1.06 -10.47,-1.79 -9.37,5.76 z"
         fill="#f4a28c"
         id="path1578" />
      <path
         d="m 274.09,105.06 c 0,0 0.32,-2.66 2.64,-2.55 2.32,0.11 1.41,5.09 -2.64,2.55 z"
         fill="#f4a28c"
         id="path1580" />
      <path
         d="m 267.38,88 a 3.94,3.94 0 0 1 4.37,-1.91 c 3.2,0.57 7.77,2.49 4.92,6.52 -2.85,4.03 -9.29,-4.61 -9.29,-4.61 z"
         fill="#24285b"
         id="path1582" />
      <path
         d="m 263.86,103.58 c 0,0 0.81,-2.56 -1.35,-3.42 -2.16,-0.86 -3.39,4.05 1.35,3.42 z"
         fill="#f4a28c"
         id="path1584" />
      <polygon
         points="322.98,226.53 319.06,229.3 284.23,207.95 294.53,200.66 "
         fill="#f4a28c"
         id="polygon1586" />
      <path
         d="m 323,226.53 c 0,0 4.13,1.22 6.82,-0.89 2.69,-2.11 5.88,1.54 1.11,4.3 a 29.47,29.47 0 0 1 -4.62,2.22 8.92,8.92 0 0 0 -3.69,2.8 1.47,1.47 0 0 1 -1.64,0.4 c -2.32,-0.59 -1.64,-6.24 -1.64,-6.24 z"
         fill="#8238fb"
         id="path1588" />
      <path
         d="m 303.6,107.9 c 0,0 22.36,9.8 33.27,44.81 10.91,35.01 -7.26,41.31 -53.45,33.12 l -3.95,-7.55 c 0,0 33.46,1.15 40,-10.14 6.54,-11.29 -44.62,-18.84 -15.87,-60.24 z"
         fill="#f4a28c"
         id="path1590" />
      <path
         d="m 235,107.9 c 0,0 -22.35,9.8 -33.27,44.81 -10.92,35.01 7.27,41.29 53.45,33.12 l 4,-7.55 c 0,0 -33.47,1.15 -40,-10.14 -6.53,-11.29 44.58,-18.84 15.82,-60.24 z"
         fill="#f4a28c"
         id="path1592" />
      <path
         d="m 261.59,97.68 c 0,0 0,3.75 1.11,4.83 0,0 7.08,1.4 9.69,-4.59 0,0 -0.61,4.06 2.22,5.71 l 2.12,-1.12 a 7,7 0 0 0 0.95,-7.35 c -1.9,-4.09 -1.2,-6 -5,-7.34 -3.8,-1.34 -13.14,1.37 -11.09,9.86 z"
         fill="#ffd200"
         id="path1594" />
      <polygon
         points="252.74,185.59 251.72,178.54 244.79,148.47 292.61,148.47 284.84,180.91 284.16,187.33 "
         fill="#ffd200"
         id="polygon1596" />
      <circle
         cx="269.13"
         cy="162.72"
         r="4.1500001"
         fill="#ffffff"
         id="circle1598" />
      <path
         d="m 241.29,193.57 c 0,0 1.31,-13.76 16.62,-15.23 15.31,-1.47 52.88,27.51 52.88,27.51 l -15.46,29.59 z"
         fill="#24285b"
         id="path1600" />
      <path
         d="m 241.29,193.57 c 0,0 -6.52,11.64 3.65,13.29 10.17,1.65 37,0 37,0 z"
         fill="#24285b"
         id="path1602" />
      <path
         d="m 202.53,252.67 c 0,0 -9.21,-2.51 -11.21,-11.09 0,0 14.27,-2.88 14.68,11.85 z"
         fill="#8238fb"
         opacity="0.58"
         id="path1604" />
      <path
         d="m 203.66,251.76 c 0,0 -6.43,-10.18 -0.77,-19.69 0,0 10.85,6.89 6,19.71 z"
         fill="#8238fb"
         opacity="0.73"
         id="path1606" />
      <path
         d="m 205.32,251.76 c 0,0 3.4,-10.76 13.68,-12.76 0,0 1.93,7 -6.66,12.81 z"
         fill="#8238fb"
         id="path1608" />
      <polygon
         points="200.51,264.3 212.27,264.35 214,251.59 198.64,251.52 "
         fill="#24285b"
         id="polygon1610" />
      <rect
         x="29.5"
         y="197.08"
         width="60.07"
         height="41.299999"
         fill="#ffd200"
         id="rect1612" />
      <path
         d="m 51.47,225.84 a 1.31,1.31 0 0 1 -0.86,-0.3 l -9,-7.12 a 1.38,1.38 0 0 1 -0.53,-1.08 1.41,1.41 0 0 1 0.52,-1.09 l 9,-7.25 a 1.3907282,1.3907282 0 0 1 1.74,2.17 l -7.65,6.15 7.64,6 a 1.39,1.39 0 0 1 -0.86,2.48 z"
         fill="#ffffff"
         id="path1614" />
      <path
         d="m 67.77,225.84 a 1.37,1.37 0 0 1 -1.09,-0.53 1.39,1.39 0 0 1 0.23,-1.95 l 7.64,-6 -7.65,-6.15 A 1.4063872,1.4063872 0 0 1 68.64,209 l 9,7.25 a 1.41,1.41 0 0 1 0.52,1.09 1.38,1.38 0 0 1 -0.53,1.08 l -9,7.12 a 1.33,1.33 0 0 1 -0.86,0.3 z"
         fill="#ffffff"
         id="path1616" />
      <path
         d="m 55.84,225.84 a 1.51,1.51 0 0 1 -0.58,-0.12 1.4,1.4 0 0 1 -0.68,-1.85 l 6.56,-14.36 a 1.39,1.39 0 0 1 2.53,1.15 L 57.11,225 a 1.4,1.4 0 0 1 -1.27,0.84 z"
         fill="#ffffff"
         id="path1618" />
    </g>
    <path
       id="path1689-4"
       style="fill:#ffcc00;fill-opacity:1;stroke:#000000;stroke-width:0.471026;stroke-opacity:0"
       d="m -642.45662,-199.86574 a 179.66262,179.66262 0 0 0 -179.6631,179.662232 179.66262,179.66262 0 0 0 179.6631,179.663148 179.66262,179.66262 0 0 0 179.6623,-179.663148 179.66262,179.66262 0 0 0 -179.6623,-179.662232 z m -1.345,52.62883 a 127.97697,127.97697 0 0 1 127.9764,127.976372 127.97697,127.97697 0 0 1 -127.9764,127.977288 127.97697,127.97697 0 0 1 -127.9773,-127.977288 127.97697,127.97697 0 0 1 127.9773,-127.976372 z" />
    <rect
       y="426.28436"
       x="1736.4523"
       height="205.06097"
       width="524.26917"
       id="rect1747"
       style="fill:#000000;fill-opacity:1;stroke:#000000;stroke-opacity:0" />
    <text
       transform="scale(1.0090982,0.99098384)"
       id="text1720"
       y="575.9165"
       x="1865.8931"
       style="font-style:normal;font-weight:normal;font-size:83.8102px;line-height:1.25;font-family:sans-serif;fill:#ffffff;fill-opacity:1;stroke:none;stroke-width:2.09524"
       xml:space="preserve"><tspan
         style="font-style:normal;font-variant:normal;font-weight:bold;font-stretch:normal;font-family:'Bauhaus 93';-inkscape-font-specification:'Bauhaus 93 Bold';fill:#ffffff;stroke-width:2.09524"
         y="575.9165"
         x="1865.8931"
         id="tspan1718"
         sodipodi:role="line">BISA IT</tspan></text>
  </g>
</svg>
